<svg id="Capa_1" data-name="Capa 1" xmlns="http://www.w3.org/2000/svg" xmlns:xlink="http://www.w3.org/1999/xlink" viewBox="0 0 746.58 538.78"><defs><style>.cls-1,.cls-6,.cls-7,.cls-8,.cls-9{fill:#fff;}.cls-2{fill:#5266df;}.cls-3{fill:#e8eaf6;}.cls-4{mask:url(#mask);}.cls-11,.cls-13,.cls-5{fill:#242a45;}.cls-11,.cls-13,.cls-5,.cls-8,.cls-9{fill-rule:evenodd;}.cls-11,.cls-13,.cls-6,.cls-7,.cls-8,.cls-9{isolation:isolate;}.cls-6{opacity:0.25;}.cls-7{opacity:0.1;}.cls-8{opacity:0.75;}.cls-13,.cls-9{opacity:0.25;}.cls-10{mask:url(#mask-2);}.cls-11{opacity:0.5;}.cls-12{fill:#f98e5d;}.cls-14{fill:#6ac6d6;}.cls-15{fill:#a47ed4;}.cls-16{fill:#ec7878;}</style><mask id="mask" x="83.05" y="55.89" width="547" height="346" maskUnits="userSpaceOnUse"><g id="b"><rect id="a" class="cls-1" x="86.58" y="55.89" width="536" height="346" rx="8"/></g></mask><mask id="mask-2" x="86.58" y="55.89" width="536" height="409" maskUnits="userSpaceOnUse"><g id="b-2" data-name="b"><rect id="a-2" data-name="a" class="cls-1" x="86.58" y="55.89" width="536" height="346" rx="8"/></g></mask></defs><rect class="cls-2" x="-293.22" y="235.49" width="836.55" height="239.2" rx="103.35"/><rect id="a-3" data-name="a" class="cls-3" x="86.58" y="55.89" width="536" height="346" rx="8"/><g class="cls-4"><path class="cls-5" d="M83.05,56.09h547v59h-547Z"/><circle class="cls-6" cx="125.05" cy="86.09" r="16"/><circle class="cls-7" cx="586.05" cy="86.09" r="16"/><path class="cls-8" d="M159.05,76.09h114a3,3,0,0,1,3,3h0a3,3,0,0,1-3,3h-114a3,3,0,0,1-3-3h0A3,3,0,0,1,159.05,76.09Z"/><path class="cls-9" d="M159.05,90.09h58a3,3,0,0,1,3,3h0a3,3,0,0,1-3,3h-58a3,3,0,0,1-3-3h0A3,3,0,0,1,159.05,90.09Z"/></g><g class="cls-10"><rect class="cls-1" x="143.58" y="148.89" width="261" height="316" rx="8"/><rect class="cls-1" x="438.58" y="148.89" width="128" height="316" rx="8"/><path class="cls-11" d="M225.05,187.09h114a3,3,0,0,1,3,3h0a3,3,0,0,1-3,3h-114a3,3,0,0,1-3-3h0A3,3,0,0,1,225.05,187.09Z"/></g><circle class="cls-12" cx="191.05" cy="197.09" r="16"/><path class="cls-13" d="M462.05,171.09h82a3,3,0,0,1,3,3h0a3,3,0,0,1-3,3h-82a3,3,0,0,1-3-3h0A3,3,0,0,1,462.05,171.09Z"/><path class="cls-13" d="M462.05,191.09h82a3,3,0,0,1,3,3h0a3,3,0,0,1-3,3h-82a3,3,0,0,1-3-3h0A3,3,0,0,1,462.05,191.09Z"/><path class="cls-13" d="M462.05,211.09h82a3,3,0,0,1,3,3h0a3,3,0,0,1-3,3h-82a3,3,0,0,1-3-3h0A3,3,0,0,1,462.05,211.09Z"/><path class="cls-13" d="M462.05,231.09h82a3,3,0,0,1,3,3h0a3,3,0,0,1-3,3h-82a3,3,0,0,1-3-3h0A3,3,0,0,1,462.05,231.09Z"/><path class="cls-13" d="M462.05,265.09h82a3,3,0,0,1,3,3h0a3,3,0,0,1-3,3h-82a3,3,0,0,1-3-3h0A3,3,0,0,1,462.05,265.09Z"/><path class="cls-13" d="M462.05,285.09h82a3,3,0,0,1,3,3h0a3,3,0,0,1-3,3h-82a3,3,0,0,1-3-3h0A3,3,0,0,1,462.05,285.09Z"/><path class="cls-13" d="M462.05,305.09h82a3,3,0,0,1,3,3h0a3,3,0,0,1-3,3h-82a3,3,0,0,1-3-3h0A3,3,0,0,1,462.05,305.09Z"/><path class="cls-13" d="M225.05,201.09h58a3,3,0,0,1,3,3h0a3,3,0,0,1-3,3h-58a3,3,0,0,1-3-3h0A3,3,0,0,1,225.05,201.09Z"/><circle class="cls-14" cx="191.05" cy="253.09" r="16"/><path class="cls-11" d="M225.05,243.09h114a3,3,0,0,1,3,3h0a3,3,0,0,1-3,3h-114a3,3,0,0,1-3-3h0A3,3,0,0,1,225.05,243.09Z"/><path class="cls-13" d="M225.05,257.09h58a3,3,0,0,1,3,3h0a3,3,0,0,1-3,3h-58a3,3,0,0,1-3-3h0A3,3,0,0,1,225.05,257.09Z"/><circle class="cls-15" cx="191.05" cy="309.09" r="16"/><path class="cls-11" d="M225.05,299.09h114a3,3,0,0,1,3,3h0a3,3,0,0,1-3,3h-114a3,3,0,0,1-3-3h0A3,3,0,0,1,225.05,299.09Z"/><path class="cls-13" d="M225.05,313.09h58a3,3,0,0,1,3,3h0a3,3,0,0,1-3,3h-58a3,3,0,0,1-3-3h0A3,3,0,0,1,225.05,313.09Z"/><circle class="cls-16" cx="191.05" cy="365.09" r="16"/><path class="cls-11" d="M225.05,355.09h114a3,3,0,0,1,3,3h0a3,3,0,0,1-3,3h-114a3,3,0,0,1-3-3h0A3,3,0,0,1,225.05,355.09Z"/><path class="cls-13" d="M225.05,369.09h58a3,3,0,0,1,3,3h0a3,3,0,0,1-3,3h-58a3,3,0,0,1-3-3h0A3,3,0,0,1,225.05,369.09Z"/></svg>